<svg width="143" height="27" viewBox="0 0 143 27" fill="none" xmlns="http://www.w3.org/2000/svg">
<path fill-rule="evenodd" clip-rule="evenodd" d="M17.6582 9.69493L19.8181 13.3692L16.1578 13.3398L12.5409 7.18969L9.02526 13.2789L5.38254 13.2525L12.5 0.924681L17.6582 9.69493ZM20.7963 15.0291L22.579 18.0592L2.69686 17.9042L4.43332 14.8966L20.7963 15.0291ZM23.5724 19.7466L21.8383 22.7502L-1.60017e-05 22.5753L1.73644 19.5677L23.5724 19.7466Z" fill="white"/>
<path d="M38.7595 14.52C39.4915 14.676 40.0795 15.042 40.5235 15.618C40.9675 16.182 41.1895 16.83 41.1895 17.562C41.1895 18.618 40.8175 19.458 40.0735 20.082C39.3415 20.694 38.3155 21 36.9955 21H31.1095V8.364H36.7975C38.0815 8.364 39.0835 8.658 39.8035 9.246C40.5355 9.834 40.9015 10.632 40.9015 11.64C40.9015 12.384 40.7035 13.002 40.3075 13.494C39.9235 13.986 39.4075 14.328 38.7595 14.52ZM34.1875 13.476H36.2035C36.7075 13.476 37.0915 13.368 37.3555 13.152C37.6315 12.924 37.7695 12.594 37.7695 12.162C37.7695 11.73 37.6315 11.4 37.3555 11.172C37.0915 10.944 36.7075 10.83 36.2035 10.83H34.1875V13.476ZM36.4555 18.516C36.9715 18.516 37.3675 18.402 37.6435 18.174C37.9315 17.934 38.0755 17.592 38.0755 17.148C38.0755 16.704 37.9255 16.356 37.6255 16.104C37.3375 15.852 36.9355 15.726 36.4195 15.726H34.1875V18.516H36.4555ZM42.3628 15.96C42.3628 14.928 42.5548 14.022 42.9388 13.242C43.3348 12.462 43.8688 11.862 44.5408 11.442C45.2128 11.022 45.9628 10.812 46.7908 10.812C47.4988 10.812 48.1168 10.956 48.6448 11.244C49.1848 11.532 49.5988 11.91 49.8868 12.378V10.956H52.9648V21H49.8868V19.578C49.5868 20.046 49.1668 20.424 48.6268 20.712C48.0988 21 47.4808 21.144 46.7728 21.144C45.9568 21.144 45.2128 20.934 44.5408 20.514C43.8688 20.082 43.3348 19.476 42.9388 18.696C42.5548 17.904 42.3628 16.992 42.3628 15.96ZM49.8868 15.978C49.8868 15.21 49.6708 14.604 49.2388 14.16C48.8188 13.716 48.3028 13.494 47.6908 13.494C47.0788 13.494 46.5568 13.716 46.1248 14.16C45.7048 14.592 45.4948 15.192 45.4948 15.96C45.4948 16.728 45.7048 17.34 46.1248 17.796C46.5568 18.24 47.0788 18.462 47.6908 18.462C48.3028 18.462 48.8188 18.24 49.2388 17.796C49.6708 17.352 49.8868 16.746 49.8868 15.978ZM65.4516 10.956L59.1516 25.77H55.8396L58.1436 20.658L54.0576 10.956H57.4956L59.8176 17.238L62.1216 10.956H65.4516ZM71.1366 21.144C70.1526 21.144 69.2646 20.934 68.4726 20.514C67.6926 20.094 67.0746 19.494 66.6186 18.714C66.1746 17.934 65.9526 17.022 65.9526 15.978C65.9526 14.946 66.1806 14.04 66.6366 13.26C67.0926 12.468 67.7166 11.862 68.5086 11.442C69.3006 11.022 70.1886 10.812 71.1726 10.812C72.1566 10.812 73.0446 11.022 73.8366 11.442C74.6286 11.862 75.2526 12.468 75.7086 13.26C76.1646 14.04 76.3926 14.946 76.3926 15.978C76.3926 17.01 76.1586 17.922 75.6906 18.714C75.2346 19.494 74.6046 20.094 73.8006 20.514C73.0086 20.934 72.1206 21.144 71.1366 21.144ZM71.1366 18.48C71.7246 18.48 72.2226 18.264 72.6306 17.832C73.0506 17.4 73.2606 16.782 73.2606 15.978C73.2606 15.174 73.0566 14.556 72.6486 14.124C72.2526 13.692 71.7606 13.476 71.1726 13.476C70.5726 13.476 70.0746 13.692 69.6786 14.124C69.2826 14.544 69.0846 15.162 69.0846 15.978C69.0846 16.782 69.2766 17.4 69.6606 17.832C70.0566 18.264 70.5486 18.48 71.1366 18.48ZM84.1455 10.848C85.3215 10.848 86.2575 11.232 86.9535 12C87.6615 12.756 88.0155 13.8 88.0155 15.132V21H84.9555V15.546C84.9555 14.874 84.7815 14.352 84.4335 13.98C84.0855 13.608 83.6175 13.422 83.0295 13.422C82.4415 13.422 81.9735 13.608 81.6255 13.98C81.2775 14.352 81.1035 14.874 81.1035 15.546V21H78.0255V10.956H81.1035V12.288C81.4155 11.844 81.8355 11.496 82.3635 11.244C82.8915 10.98 83.4855 10.848 84.1455 10.848ZM94.7265 21.126C93.8025 21.126 92.9745 20.976 92.2425 20.676C91.5105 20.376 90.9225 19.932 90.4785 19.344C90.0465 18.756 89.8185 18.048 89.7945 17.22H93.0705C93.1185 17.688 93.2805 18.048 93.5565 18.3C93.8325 18.54 94.1925 18.66 94.6365 18.66C95.0925 18.66 95.4525 18.558 95.7165 18.354C95.9805 18.138 96.1125 17.844 96.1125 17.472C96.1125 17.16 96.0045 16.902 95.7885 16.698C95.5845 16.494 95.3265 16.326 95.0145 16.194C94.7145 16.062 94.2825 15.912 93.7185 15.744C92.9025 15.492 92.2365 15.24 91.7205 14.988C91.2045 14.736 90.7605 14.364 90.3885 13.872C90.0165 13.38 89.8305 12.738 89.8305 11.946C89.8305 10.77 90.2565 9.852 91.1085 9.192C91.9605 8.52 93.0705 8.184 94.4385 8.184C95.8305 8.184 96.9525 8.52 97.8045 9.192C98.6565 9.852 99.1125 10.776 99.1725 11.964H95.8425C95.8185 11.556 95.6685 11.238 95.3925 11.01C95.1165 10.77 94.7625 10.65 94.3305 10.65C93.9585 10.65 93.6585 10.752 93.4305 10.956C93.2025 11.148 93.0885 11.43 93.0885 11.802C93.0885 12.21 93.2805 12.528 93.6645 12.756C94.0485 12.984 94.6485 13.23 95.4645 13.494C96.2805 13.77 96.9405 14.034 97.4445 14.286C97.9605 14.538 98.4045 14.904 98.7765 15.384C99.1485 15.864 99.3345 16.482 99.3345 17.238C99.3345 17.958 99.1485 18.612 98.7765 19.2C98.4165 19.788 97.8885 20.256 97.1925 20.604C96.4965 20.952 95.6745 21.126 94.7265 21.126ZM107.403 10.848C108.555 10.848 109.479 11.232 110.175 12C110.871 12.756 111.219 13.8 111.219 15.132V21H108.159V15.546C108.159 14.874 107.985 14.352 107.637 13.98C107.289 13.608 106.821 13.422 106.233 13.422C105.645 13.422 105.177 13.608 104.829 13.98C104.481 14.352 104.307 14.874 104.307 15.546V21H101.229V7.68H104.307V12.306C104.619 11.862 105.045 11.508 105.585 11.244C106.125 10.98 106.731 10.848 107.403 10.848ZM117.93 21.144C116.946 21.144 116.058 20.934 115.266 20.514C114.486 20.094 113.868 19.494 113.412 18.714C112.968 17.934 112.746 17.022 112.746 15.978C112.746 14.946 112.974 14.04 113.43 13.26C113.886 12.468 114.51 11.862 115.302 11.442C116.094 11.022 116.982 10.812 117.966 10.812C118.95 10.812 119.838 11.022 120.63 11.442C121.422 11.862 122.046 12.468 122.502 13.26C122.958 14.04 123.186 14.946 123.186 15.978C123.186 17.01 122.952 17.922 122.484 18.714C122.028 19.494 121.398 20.094 120.594 20.514C119.802 20.934 118.914 21.144 117.93 21.144ZM117.93 18.48C118.518 18.48 119.016 18.264 119.424 17.832C119.844 17.4 120.054 16.782 120.054 15.978C120.054 15.174 119.85 14.556 119.442 14.124C119.046 13.692 118.554 13.476 117.966 13.476C117.366 13.476 116.868 13.692 116.472 14.124C116.076 14.544 115.878 15.162 115.878 15.978C115.878 16.782 116.07 17.4 116.454 17.832C116.85 18.264 117.342 18.48 117.93 18.48ZM127.897 12.378C128.197 11.91 128.611 11.532 129.139 11.244C129.667 10.956 130.285 10.812 130.993 10.812C131.821 10.812 132.571 11.022 133.243 11.442C133.915 11.862 134.443 12.462 134.827 13.242C135.223 14.022 135.421 14.928 135.421 15.96C135.421 16.992 135.223 17.904 134.827 18.696C134.443 19.476 133.915 20.082 133.243 20.514C132.571 20.934 131.821 21.144 130.993 21.144C130.297 21.144 129.679 21 129.139 20.712C128.611 20.424 128.197 20.052 127.897 19.596V25.788H124.819V10.956H127.897V12.378ZM132.289 15.96C132.289 15.192 132.073 14.592 131.641 14.16C131.221 13.716 130.699 13.494 130.075 13.494C129.463 13.494 128.941 13.716 128.509 14.16C128.089 14.604 127.879 15.21 127.879 15.978C127.879 16.746 128.089 17.352 128.509 17.796C128.941 18.24 129.463 18.462 130.075 18.462C130.687 18.462 131.209 18.24 131.641 17.796C132.073 17.34 132.289 16.728 132.289 15.96Z" fill="white"/>
<path d="M139.735 21.216C139.111 21.216 138.583 21 138.151 20.568C137.719 20.136 137.503 19.608 137.503 18.984C137.503 18.36 137.719 17.832 138.151 17.4C138.583 16.968 139.111 16.752 139.735 16.752C140.335 16.752 140.839 16.968 141.247 17.4C141.679 17.832 141.895 18.36 141.895 18.984C141.895 19.608 141.679 20.136 141.247 20.568C140.839 21 140.335 21.216 139.735 21.216Z" fill="#7DB800"/>
</svg>
